<mxfile host="app.diagrams.net" modified="2023-02-10T15:34:08.879Z" agent="5.0 (Windows NT 10.0; Win64; x64) AppleWebKit/537.36 (KHTML, like Gecko) Chrome/109.0.0.0 Safari/537.36 Edg/109.0.1518.78" etag="IAcIdMMc_NTsHupR4aAt" version="20.8.13" type="github" pages="2">
  <diagram id="8cfLSDVFYSSkYeuZr6Ks" name="Page-1">
    <mxGraphModel dx="1063" dy="614" grid="1" gridSize="10" guides="1" tooltips="1" connect="1" arrows="1" fold="1" page="1" pageScale="1" pageWidth="1169" pageHeight="827" math="0" shadow="0">
      <root>
        <mxCell id="0" />
        <mxCell id="1" parent="0" />
        <mxCell id="XCCGsWcUAZ_EwUzaCA__-7" value="" style="group" vertex="1" connectable="0" parent="1">
          <mxGeometry x="80" y="160" width="140" height="120" as="geometry" />
        </mxCell>
        <mxCell id="XCCGsWcUAZ_EwUzaCA__-2" value="" style="rounded=1;whiteSpace=wrap;html=1;rotation=-90;container=0;" vertex="1" parent="XCCGsWcUAZ_EwUzaCA__-7">
          <mxGeometry x="10" y="45" width="120" height="30" as="geometry" />
        </mxCell>
        <mxCell id="XCCGsWcUAZ_EwUzaCA__-4" value="" style="rounded=1;whiteSpace=wrap;html=1;rotation=-90;container=0;" vertex="1" parent="XCCGsWcUAZ_EwUzaCA__-7">
          <mxGeometry x="65" y="45" width="120" height="30" as="geometry" />
        </mxCell>
        <mxCell id="XCCGsWcUAZ_EwUzaCA__-5" value="" style="edgeStyle=orthogonalEdgeStyle;rounded=1;orthogonalLoop=1;jettySize=auto;html=1;strokeWidth=3;endSize=3;startSize=3;jumpStyle=none;startArrow=none;startFill=0;endArrow=block;endFill=1;jumpSize=3;" edge="1" parent="XCCGsWcUAZ_EwUzaCA__-7" source="XCCGsWcUAZ_EwUzaCA__-2" target="XCCGsWcUAZ_EwUzaCA__-4">
          <mxGeometry relative="1" as="geometry" />
        </mxCell>
        <mxCell id="XCCGsWcUAZ_EwUzaCA__-1" value="" style="rounded=1;whiteSpace=wrap;html=1;rotation=-90;container=0;" vertex="1" parent="XCCGsWcUAZ_EwUzaCA__-7">
          <mxGeometry x="-45" y="45" width="120" height="30" as="geometry" />
        </mxCell>
        <mxCell id="XCCGsWcUAZ_EwUzaCA__-3" value="" style="edgeStyle=orthogonalEdgeStyle;rounded=0;orthogonalLoop=1;jettySize=auto;html=1;strokeWidth=3;startSize=3;endSize=3;endArrow=block;endFill=1;jumpSize=3;" edge="1" parent="XCCGsWcUAZ_EwUzaCA__-7" source="XCCGsWcUAZ_EwUzaCA__-1" target="XCCGsWcUAZ_EwUzaCA__-2">
          <mxGeometry relative="1" as="geometry" />
        </mxCell>
        <mxCell id="XCCGsWcUAZ_EwUzaCA__-8" value="" style="group" vertex="1" connectable="0" parent="1">
          <mxGeometry x="190" y="320" width="140" height="120" as="geometry" />
        </mxCell>
        <mxCell id="XCCGsWcUAZ_EwUzaCA__-9" value="" style="rounded=1;whiteSpace=wrap;html=1;rotation=-90;container=0;" vertex="1" parent="XCCGsWcUAZ_EwUzaCA__-8">
          <mxGeometry x="10" y="45" width="120" height="30" as="geometry" />
        </mxCell>
        <mxCell id="XCCGsWcUAZ_EwUzaCA__-10" value="" style="rounded=1;whiteSpace=wrap;html=1;rotation=-90;container=0;" vertex="1" parent="XCCGsWcUAZ_EwUzaCA__-8">
          <mxGeometry x="65" y="45" width="120" height="30" as="geometry" />
        </mxCell>
        <mxCell id="XCCGsWcUAZ_EwUzaCA__-11" value="" style="edgeStyle=orthogonalEdgeStyle;rounded=1;orthogonalLoop=1;jettySize=auto;html=1;strokeWidth=3;endSize=3;startSize=3;jumpStyle=none;startArrow=none;startFill=0;endArrow=block;endFill=1;jumpSize=3;" edge="1" parent="XCCGsWcUAZ_EwUzaCA__-8" source="XCCGsWcUAZ_EwUzaCA__-9" target="XCCGsWcUAZ_EwUzaCA__-10">
          <mxGeometry relative="1" as="geometry" />
        </mxCell>
        <mxCell id="XCCGsWcUAZ_EwUzaCA__-12" value="" style="rounded=1;whiteSpace=wrap;html=1;rotation=-90;container=0;" vertex="1" parent="XCCGsWcUAZ_EwUzaCA__-8">
          <mxGeometry x="-45" y="45" width="120" height="30" as="geometry" />
        </mxCell>
        <mxCell id="XCCGsWcUAZ_EwUzaCA__-13" value="" style="edgeStyle=orthogonalEdgeStyle;rounded=0;orthogonalLoop=1;jettySize=auto;html=1;strokeWidth=3;startSize=3;endSize=3;endArrow=block;endFill=1;jumpSize=3;" edge="1" parent="XCCGsWcUAZ_EwUzaCA__-8" source="XCCGsWcUAZ_EwUzaCA__-12" target="XCCGsWcUAZ_EwUzaCA__-9">
          <mxGeometry relative="1" as="geometry" />
        </mxCell>
        <mxCell id="XCCGsWcUAZ_EwUzaCA__-14" value="" style="group" vertex="1" connectable="0" parent="1">
          <mxGeometry x="300" y="480" width="140" height="120" as="geometry" />
        </mxCell>
        <mxCell id="XCCGsWcUAZ_EwUzaCA__-15" value="" style="rounded=1;whiteSpace=wrap;html=1;rotation=-90;container=0;" vertex="1" parent="XCCGsWcUAZ_EwUzaCA__-14">
          <mxGeometry x="10" y="45" width="120" height="30" as="geometry" />
        </mxCell>
        <mxCell id="XCCGsWcUAZ_EwUzaCA__-16" value="" style="rounded=1;whiteSpace=wrap;html=1;rotation=-90;container=0;" vertex="1" parent="XCCGsWcUAZ_EwUzaCA__-14">
          <mxGeometry x="65" y="45" width="120" height="30" as="geometry" />
        </mxCell>
        <mxCell id="XCCGsWcUAZ_EwUzaCA__-17" value="" style="edgeStyle=orthogonalEdgeStyle;rounded=1;orthogonalLoop=1;jettySize=auto;html=1;strokeWidth=3;endSize=3;startSize=3;jumpStyle=none;startArrow=none;startFill=0;endArrow=block;endFill=1;jumpSize=3;" edge="1" parent="XCCGsWcUAZ_EwUzaCA__-14" source="XCCGsWcUAZ_EwUzaCA__-15" target="XCCGsWcUAZ_EwUzaCA__-16">
          <mxGeometry relative="1" as="geometry" />
        </mxCell>
        <mxCell id="XCCGsWcUAZ_EwUzaCA__-18" value="" style="rounded=1;whiteSpace=wrap;html=1;rotation=-90;container=0;" vertex="1" parent="XCCGsWcUAZ_EwUzaCA__-14">
          <mxGeometry x="-45" y="45" width="120" height="30" as="geometry" />
        </mxCell>
        <mxCell id="XCCGsWcUAZ_EwUzaCA__-19" value="" style="edgeStyle=orthogonalEdgeStyle;rounded=0;orthogonalLoop=1;jettySize=auto;html=1;strokeWidth=3;startSize=3;endSize=3;endArrow=block;endFill=1;jumpSize=3;" edge="1" parent="XCCGsWcUAZ_EwUzaCA__-14" source="XCCGsWcUAZ_EwUzaCA__-18" target="XCCGsWcUAZ_EwUzaCA__-15">
          <mxGeometry relative="1" as="geometry" />
        </mxCell>
        <mxCell id="XCCGsWcUAZ_EwUzaCA__-20" value="" style="group" vertex="1" connectable="0" parent="1">
          <mxGeometry x="680" y="480" width="140" height="120" as="geometry" />
        </mxCell>
        <mxCell id="XCCGsWcUAZ_EwUzaCA__-21" value="" style="rounded=1;whiteSpace=wrap;html=1;rotation=-90;container=0;" vertex="1" parent="XCCGsWcUAZ_EwUzaCA__-20">
          <mxGeometry x="10" y="45" width="120" height="30" as="geometry" />
        </mxCell>
        <mxCell id="XCCGsWcUAZ_EwUzaCA__-22" value="" style="rounded=1;whiteSpace=wrap;html=1;rotation=-90;container=0;" vertex="1" parent="XCCGsWcUAZ_EwUzaCA__-20">
          <mxGeometry x="65" y="45" width="120" height="30" as="geometry" />
        </mxCell>
        <mxCell id="XCCGsWcUAZ_EwUzaCA__-23" value="" style="edgeStyle=orthogonalEdgeStyle;rounded=1;orthogonalLoop=1;jettySize=auto;html=1;strokeWidth=3;endSize=3;startSize=3;jumpStyle=none;startArrow=none;startFill=0;endArrow=block;endFill=1;jumpSize=3;" edge="1" parent="XCCGsWcUAZ_EwUzaCA__-20" source="XCCGsWcUAZ_EwUzaCA__-21" target="XCCGsWcUAZ_EwUzaCA__-22">
          <mxGeometry relative="1" as="geometry" />
        </mxCell>
        <mxCell id="XCCGsWcUAZ_EwUzaCA__-24" value="" style="rounded=1;whiteSpace=wrap;html=1;rotation=-90;container=0;" vertex="1" parent="XCCGsWcUAZ_EwUzaCA__-20">
          <mxGeometry x="-45" y="45" width="120" height="30" as="geometry" />
        </mxCell>
        <mxCell id="XCCGsWcUAZ_EwUzaCA__-25" value="" style="edgeStyle=orthogonalEdgeStyle;rounded=0;orthogonalLoop=1;jettySize=auto;html=1;strokeWidth=3;startSize=3;endSize=3;endArrow=block;endFill=1;jumpSize=3;" edge="1" parent="XCCGsWcUAZ_EwUzaCA__-20" source="XCCGsWcUAZ_EwUzaCA__-24" target="XCCGsWcUAZ_EwUzaCA__-21">
          <mxGeometry relative="1" as="geometry" />
        </mxCell>
        <mxCell id="XCCGsWcUAZ_EwUzaCA__-42" value="" style="edgeStyle=orthogonalEdgeStyle;rounded=1;jumpStyle=none;jumpSize=3;orthogonalLoop=1;jettySize=auto;html=1;strokeWidth=3;startArrow=none;startFill=0;endArrow=block;endFill=1;startSize=3;endSize=3;" edge="1" parent="1" source="XCCGsWcUAZ_EwUzaCA__-27" target="XCCGsWcUAZ_EwUzaCA__-28">
          <mxGeometry relative="1" as="geometry" />
        </mxCell>
        <mxCell id="XCCGsWcUAZ_EwUzaCA__-27" value="" style="rounded=1;whiteSpace=wrap;html=1;rotation=0;container=0;" vertex="1" parent="1">
          <mxGeometry x="370" y="630" width="110" height="30" as="geometry" />
        </mxCell>
        <mxCell id="XCCGsWcUAZ_EwUzaCA__-43" value="" style="edgeStyle=orthogonalEdgeStyle;rounded=1;jumpStyle=none;jumpSize=3;orthogonalLoop=1;jettySize=auto;html=1;strokeWidth=3;startArrow=none;startFill=0;endArrow=block;endFill=1;startSize=3;endSize=3;" edge="1" parent="1" source="XCCGsWcUAZ_EwUzaCA__-28" target="XCCGsWcUAZ_EwUzaCA__-29">
          <mxGeometry relative="1" as="geometry" />
        </mxCell>
        <mxCell id="XCCGsWcUAZ_EwUzaCA__-28" value="" style="rounded=1;whiteSpace=wrap;html=1;rotation=0;container=0;" vertex="1" parent="1">
          <mxGeometry x="500" y="630" width="120" height="30" as="geometry" />
        </mxCell>
        <mxCell id="XCCGsWcUAZ_EwUzaCA__-47" value="" style="edgeStyle=orthogonalEdgeStyle;rounded=1;jumpStyle=none;jumpSize=3;orthogonalLoop=1;jettySize=auto;html=1;strokeWidth=3;startArrow=none;startFill=0;endArrow=block;endFill=1;startSize=3;endSize=3;" edge="1" parent="1" source="XCCGsWcUAZ_EwUzaCA__-29" target="XCCGsWcUAZ_EwUzaCA__-24">
          <mxGeometry relative="1" as="geometry" />
        </mxCell>
        <mxCell id="XCCGsWcUAZ_EwUzaCA__-29" value="" style="rounded=1;whiteSpace=wrap;html=1;rotation=0;container=0;" vertex="1" parent="1">
          <mxGeometry x="640" y="630" width="110" height="30" as="geometry" />
        </mxCell>
        <mxCell id="XCCGsWcUAZ_EwUzaCA__-30" value="" style="group" vertex="1" connectable="0" parent="1">
          <mxGeometry x="790" y="320" width="140" height="120" as="geometry" />
        </mxCell>
        <mxCell id="XCCGsWcUAZ_EwUzaCA__-31" value="" style="rounded=1;whiteSpace=wrap;html=1;rotation=-90;container=0;" vertex="1" parent="XCCGsWcUAZ_EwUzaCA__-30">
          <mxGeometry x="10" y="45" width="120" height="30" as="geometry" />
        </mxCell>
        <mxCell id="XCCGsWcUAZ_EwUzaCA__-32" value="" style="rounded=1;whiteSpace=wrap;html=1;rotation=-90;container=0;" vertex="1" parent="XCCGsWcUAZ_EwUzaCA__-30">
          <mxGeometry x="65" y="45" width="120" height="30" as="geometry" />
        </mxCell>
        <mxCell id="XCCGsWcUAZ_EwUzaCA__-33" value="" style="edgeStyle=orthogonalEdgeStyle;rounded=1;orthogonalLoop=1;jettySize=auto;html=1;strokeWidth=3;endSize=3;startSize=3;jumpStyle=none;startArrow=none;startFill=0;endArrow=block;endFill=1;jumpSize=3;" edge="1" parent="XCCGsWcUAZ_EwUzaCA__-30" source="XCCGsWcUAZ_EwUzaCA__-31" target="XCCGsWcUAZ_EwUzaCA__-32">
          <mxGeometry relative="1" as="geometry" />
        </mxCell>
        <mxCell id="XCCGsWcUAZ_EwUzaCA__-34" value="" style="rounded=1;whiteSpace=wrap;html=1;rotation=-90;container=0;" vertex="1" parent="XCCGsWcUAZ_EwUzaCA__-30">
          <mxGeometry x="-45" y="45" width="120" height="30" as="geometry" />
        </mxCell>
        <mxCell id="XCCGsWcUAZ_EwUzaCA__-35" value="" style="edgeStyle=orthogonalEdgeStyle;rounded=0;orthogonalLoop=1;jettySize=auto;html=1;strokeWidth=3;startSize=3;endSize=3;endArrow=block;endFill=1;jumpSize=3;" edge="1" parent="XCCGsWcUAZ_EwUzaCA__-30" source="XCCGsWcUAZ_EwUzaCA__-34" target="XCCGsWcUAZ_EwUzaCA__-31">
          <mxGeometry relative="1" as="geometry" />
        </mxCell>
        <mxCell id="XCCGsWcUAZ_EwUzaCA__-36" value="" style="group" vertex="1" connectable="0" parent="1">
          <mxGeometry x="900" y="160" width="140" height="120" as="geometry" />
        </mxCell>
        <mxCell id="XCCGsWcUAZ_EwUzaCA__-37" value="" style="rounded=1;whiteSpace=wrap;html=1;rotation=-90;container=0;" vertex="1" parent="XCCGsWcUAZ_EwUzaCA__-36">
          <mxGeometry x="10" y="45" width="120" height="30" as="geometry" />
        </mxCell>
        <mxCell id="XCCGsWcUAZ_EwUzaCA__-38" value="" style="rounded=1;whiteSpace=wrap;html=1;rotation=-90;container=0;" vertex="1" parent="XCCGsWcUAZ_EwUzaCA__-36">
          <mxGeometry x="65" y="45" width="120" height="30" as="geometry" />
        </mxCell>
        <mxCell id="XCCGsWcUAZ_EwUzaCA__-39" value="" style="edgeStyle=orthogonalEdgeStyle;rounded=1;orthogonalLoop=1;jettySize=auto;html=1;strokeWidth=3;endSize=3;startSize=3;jumpStyle=none;startArrow=none;startFill=0;endArrow=block;endFill=1;jumpSize=3;" edge="1" parent="XCCGsWcUAZ_EwUzaCA__-36" source="XCCGsWcUAZ_EwUzaCA__-37" target="XCCGsWcUAZ_EwUzaCA__-38">
          <mxGeometry relative="1" as="geometry" />
        </mxCell>
        <mxCell id="XCCGsWcUAZ_EwUzaCA__-40" value="" style="rounded=1;whiteSpace=wrap;html=1;rotation=-90;container=0;" vertex="1" parent="XCCGsWcUAZ_EwUzaCA__-36">
          <mxGeometry x="-45" y="45" width="120" height="30" as="geometry" />
        </mxCell>
        <mxCell id="XCCGsWcUAZ_EwUzaCA__-41" value="" style="edgeStyle=orthogonalEdgeStyle;rounded=0;orthogonalLoop=1;jettySize=auto;html=1;strokeWidth=3;startSize=3;endSize=3;endArrow=block;endFill=1;jumpSize=3;" edge="1" parent="XCCGsWcUAZ_EwUzaCA__-36" source="XCCGsWcUAZ_EwUzaCA__-40" target="XCCGsWcUAZ_EwUzaCA__-37">
          <mxGeometry relative="1" as="geometry" />
        </mxCell>
        <mxCell id="XCCGsWcUAZ_EwUzaCA__-44" value="" style="edgeStyle=orthogonalEdgeStyle;rounded=1;jumpStyle=none;jumpSize=3;orthogonalLoop=1;jettySize=auto;html=1;strokeWidth=3;startArrow=none;startFill=0;endArrow=block;endFill=1;startSize=3;endSize=3;" edge="1" parent="1" source="XCCGsWcUAZ_EwUzaCA__-4" target="XCCGsWcUAZ_EwUzaCA__-12">
          <mxGeometry relative="1" as="geometry" />
        </mxCell>
        <mxCell id="XCCGsWcUAZ_EwUzaCA__-45" value="" style="edgeStyle=orthogonalEdgeStyle;rounded=1;jumpStyle=none;jumpSize=3;orthogonalLoop=1;jettySize=auto;html=1;strokeWidth=3;startArrow=none;startFill=0;endArrow=block;endFill=1;startSize=3;endSize=3;" edge="1" parent="1" source="XCCGsWcUAZ_EwUzaCA__-10" target="XCCGsWcUAZ_EwUzaCA__-18">
          <mxGeometry relative="1" as="geometry" />
        </mxCell>
        <mxCell id="XCCGsWcUAZ_EwUzaCA__-46" value="" style="edgeStyle=orthogonalEdgeStyle;rounded=1;jumpStyle=none;jumpSize=3;orthogonalLoop=1;jettySize=auto;html=1;strokeWidth=3;startArrow=none;startFill=0;endArrow=block;endFill=1;startSize=3;endSize=3;" edge="1" parent="1" source="XCCGsWcUAZ_EwUzaCA__-16" target="XCCGsWcUAZ_EwUzaCA__-27">
          <mxGeometry relative="1" as="geometry" />
        </mxCell>
        <mxCell id="XCCGsWcUAZ_EwUzaCA__-48" value="" style="edgeStyle=orthogonalEdgeStyle;rounded=1;jumpStyle=none;jumpSize=3;orthogonalLoop=1;jettySize=auto;html=1;strokeWidth=3;startArrow=none;startFill=0;endArrow=block;endFill=1;startSize=3;endSize=3;" edge="1" parent="1" source="XCCGsWcUAZ_EwUzaCA__-22" target="XCCGsWcUAZ_EwUzaCA__-34">
          <mxGeometry relative="1" as="geometry" />
        </mxCell>
        <mxCell id="XCCGsWcUAZ_EwUzaCA__-49" value="" style="edgeStyle=orthogonalEdgeStyle;rounded=1;jumpStyle=none;jumpSize=3;orthogonalLoop=1;jettySize=auto;html=1;strokeWidth=3;startArrow=none;startFill=0;endArrow=block;endFill=1;startSize=3;endSize=3;" edge="1" parent="1" source="XCCGsWcUAZ_EwUzaCA__-32" target="XCCGsWcUAZ_EwUzaCA__-40">
          <mxGeometry relative="1" as="geometry" />
        </mxCell>
        <mxCell id="XCCGsWcUAZ_EwUzaCA__-50" style="edgeStyle=orthogonalEdgeStyle;rounded=1;jumpStyle=none;jumpSize=3;orthogonalLoop=1;jettySize=auto;html=1;strokeWidth=3;startArrow=none;startFill=0;endArrow=block;endFill=1;startSize=3;endSize=3;" edge="1" parent="1" source="XCCGsWcUAZ_EwUzaCA__-4" target="XCCGsWcUAZ_EwUzaCA__-40">
          <mxGeometry relative="1" as="geometry" />
        </mxCell>
        <mxCell id="XCCGsWcUAZ_EwUzaCA__-51" style="edgeStyle=orthogonalEdgeStyle;rounded=1;jumpStyle=none;jumpSize=3;orthogonalLoop=1;jettySize=auto;html=1;entryX=0.5;entryY=0;entryDx=0;entryDy=0;strokeWidth=3;startArrow=none;startFill=0;endArrow=block;endFill=1;startSize=3;endSize=3;" edge="1" parent="1" source="XCCGsWcUAZ_EwUzaCA__-10" target="XCCGsWcUAZ_EwUzaCA__-34">
          <mxGeometry relative="1" as="geometry" />
        </mxCell>
        <mxCell id="XCCGsWcUAZ_EwUzaCA__-52" style="edgeStyle=orthogonalEdgeStyle;rounded=1;jumpStyle=none;jumpSize=3;orthogonalLoop=1;jettySize=auto;html=1;entryX=0.5;entryY=0;entryDx=0;entryDy=0;strokeWidth=3;startArrow=none;startFill=0;endArrow=block;endFill=1;startSize=3;endSize=3;" edge="1" parent="1" source="XCCGsWcUAZ_EwUzaCA__-16" target="XCCGsWcUAZ_EwUzaCA__-24">
          <mxGeometry relative="1" as="geometry" />
        </mxCell>
      </root>
    </mxGraphModel>
  </diagram>
  <diagram id="lq7hsERbANeEnVt_2CbC" name="Page-2">
    <mxGraphModel dx="1065" dy="626" grid="1" gridSize="10" guides="1" tooltips="1" connect="1" arrows="1" fold="1" page="1" pageScale="1" pageWidth="1169" pageHeight="827" math="0" shadow="0">
      <root>
        <mxCell id="0" />
        <mxCell id="1" parent="0" />
        <mxCell id="m_DO0YMKpi7YT40wdKDt-1" value="" style="rounded=1;whiteSpace=wrap;html=1;" vertex="1" parent="1">
          <mxGeometry x="80" y="80" width="120" height="60" as="geometry" />
        </mxCell>
      </root>
    </mxGraphModel>
  </diagram>
</mxfile>
